# xmcd CD Database Entry
#
# Track frame offsets:
# 150
# 19400
# 39662
# 65500
# 89612
# 115100
# 137162
# 162350
# 180662
# 205550
#
# Disc length: 3064 seconds
#
# Revision: 1
# Processed by: cddbd v1.4PL0 Copyright (c) Steve Scherf et al.
# Submitted via: tcd 2.0b
#
DISCID=890bf60a
DTITLE=Rainbow - Stranger In Us All
DYEAR=1900
DGENRE=
TTITLE0=Wolf To The Moon
TTITLE1=Cold Hearted Woman
TTITLE2=Hunting Humans
TTITLE3=Stand And Fight
TTITLE4=Ariel
TTITLE5=Too Late For Tears
TTITLE6=Black Masquerade
TTITLE7=Silence
TTITLE8=Hall Of The Mountain King
TTITLE9=Still I'm Sad
EXTD=
EXTT0=
EXTT1=
EXTT2=
EXTT3=
EXTT4=
EXTT5=
EXTT6=
EXTT7=
EXTT8=
EXTT9=
PLAYORDER=
